<svg width="130" height="134" viewBox="0 0 130 134" fill="none" xmlns="http://www.w3.org/2000/svg">
<path d="M46.2374 2.0824C37.2626 7.78621 28.8475 14.3767 21.1112 21.7607C13.7358 29.5972 7.324 38.3394 2.02026 47.7902L38.6617 85.4289L82.8788 39.8512L46.2374 2.0824Z" stroke="#CD0707" stroke-width="1.6" stroke-linejoin="round"/>
<path d="M7.90405 53.7249L52.1212 8.14722M14.4445 60.4666L58.6616 14.8889M19.9495 66.141L64.1667 20.5633" stroke="#CD0707" stroke-miterlimit="10"/>
<path d="M51.9951 61.7941C56.3882 61.7941 59.9496 58.1232 59.9496 53.5948C59.9496 49.0665 56.3882 45.3955 51.9951 45.3955C47.6019 45.3955 44.0405 49.0665 44.0405 53.5948C44.0405 58.1232 47.6019 61.7941 51.9951 61.7941Z" stroke="#CD0707" stroke-miterlimit="10"/>
<path d="M104.47 118.018C110.007 118.018 114.495 113.391 114.495 107.684C114.495 101.977 110.007 97.3505 104.47 97.3505C98.933 97.3505 94.4446 101.977 94.4446 107.684C94.4446 113.391 98.933 118.018 104.47 118.018Z" stroke="#CD0707" stroke-miterlimit="10"/>
<path d="M115.505 83.4767L107.298 91.9363C104.35 91.3851 101.311 91.7101 98.5355 92.8734L64.9749 58.2802L56.5405 66.974L90.1011 101.515C88.9725 104.376 88.6572 107.509 89.192 110.547L80.985 119.007L93.4345 131.918L101.667 123.432C104.141 123.901 106.688 123.743 109.09 122.972C111.492 122.201 113.676 120.84 115.455 119.007C117.233 117.173 118.553 114.922 119.301 112.447C120.049 109.971 120.202 107.345 119.748 104.795L127.98 96.3093L115.505 83.4767Z" stroke="#CD0707" stroke-width="1.6" stroke-linejoin="round"/>
<path d="M87.197 125.488L97.399 114.999M111.566 100.396L121.742 89.88" stroke="#CD0707" stroke-miterlimit="10"/>
</svg>
