<svg width="76" height="74" viewBox="0 0 76 74" fill="none" xmlns="http://www.w3.org/2000/svg">
<g clip-path="url(#clip0_36_76)">
<path d="M75.175 60.5986L59.546 44.8255C59.2852 44.5607 58.9747 44.3508 58.6325 44.2079C58.2903 44.065 57.9233 43.9919 57.5528 43.993C57.0331 43.993 56.5354 44.1373 56.1015 44.4025L41.6835 29.8442C41.5767 29.7361 41.4497 29.6504 41.3098 29.5919C41.1699 29.5333 41.0199 29.5032 40.8684 29.5032C40.7169 29.5032 40.5669 29.5333 40.427 29.5919C40.2871 29.6504 40.1601 29.7361 40.0532 29.8442C39.8369 30.0626 39.7154 30.3585 39.7154 30.6668C39.7154 30.9752 39.8369 31.271 40.0532 31.4895L54.4111 45.9861L51.1995 49.2285L35.2027 33.0866L38.4155 29.8442L40.5558 32.0038C40.6627 32.1118 40.7897 32.1976 40.9296 32.2561C41.0695 32.3146 41.2195 32.3447 41.371 32.3447C41.5225 32.3447 41.6725 32.3146 41.8124 32.2561C41.9523 32.1976 42.0793 32.1118 42.1861 32.0038C42.4021 31.7854 42.5233 31.4898 42.5233 31.1817C42.5233 30.8737 42.4021 30.5781 42.1861 30.3597L40.0459 28.2002L45.6147 22.5799L46.056 23.0239C46.6027 23.5764 47.3308 23.881 48.1055 23.881C48.879 23.881 49.6072 23.5764 50.1551 23.0239L52.2083 20.9519C52.4782 20.6806 52.6921 20.3583 52.8376 20.0036C52.9832 19.6488 53.0576 19.2686 53.0566 18.8848C53.0578 18.5008 52.9835 18.1203 52.8379 17.7654C52.6923 17.4104 52.4783 17.0879 52.2083 16.8165L36.4555 0.91883C36.1871 0.646484 35.8676 0.430556 35.5155 0.283611C35.1635 0.136666 34.7859 0.0616398 34.4047 0.062897C33.6312 0.062897 32.9031 0.36753 32.3564 0.920064L30.3032 2.99206C30.0329 3.26337 29.8187 3.58581 29.673 3.94079C29.5272 4.29577 29.4526 4.67627 29.4537 5.06036C29.4537 5.84106 29.7552 6.57613 30.3032 7.12866L30.7444 7.57266L13.1321 25.345L12.6908 24.901C12.4219 24.63 12.1025 24.415 11.7509 24.2683C11.3993 24.1216 11.0224 24.0461 10.6418 24.0461C10.2612 24.0461 9.88436 24.1216 9.53278 24.2683C9.1812 24.415 8.86182 24.63 8.5929 24.901L6.53968 26.973C6.26982 27.2443 6.05594 27.5665 5.91036 27.9213C5.76478 28.276 5.69037 28.6563 5.69142 29.0401C5.69142 29.822 5.99297 30.5571 6.53968 31.1084L22.2913 47.0048C22.8392 47.5573 23.5661 47.862 24.3408 47.862C25.1155 47.862 25.8437 47.5573 26.3904 47.0048L28.4436 44.9328C28.9863 44.3829 29.2909 43.6394 29.2909 42.8645C29.2909 42.0896 28.9863 41.3461 28.4436 40.7962L28.0023 40.3522L33.5724 34.7319L49.628 50.9342C49.3657 51.372 49.2223 51.874 49.2223 52.3994C49.2223 53.1591 49.5152 53.872 50.0472 54.4097L65.6763 70.1828C65.9371 70.4476 66.2476 70.6575 66.5898 70.8005C66.9319 70.9434 67.2989 71.0164 67.6694 71.0153C68.4221 71.0153 69.1281 70.7193 69.6614 70.1828L75.1738 64.6205C75.4364 64.3568 75.6445 64.0434 75.786 63.6983C75.9276 63.3533 75.9999 62.9835 75.9988 62.6102C75.9988 61.8492 75.7058 61.1351 75.1738 60.5986H75.175ZM31.9335 4.6361L33.9867 2.5641C34.0415 2.50797 34.1068 2.4634 34.1789 2.43296C34.251 2.40253 34.3284 2.38686 34.4065 2.38686C34.4847 2.38686 34.5621 2.40253 34.6342 2.43296C34.7063 2.4634 34.7716 2.50797 34.8264 2.5641L50.578 18.4605C50.6336 18.516 50.6777 18.582 50.7077 18.6547C50.7378 18.7274 50.7533 18.8054 50.7533 18.8842C50.7533 18.9629 50.7378 19.0409 50.7077 19.1136C50.6777 19.1863 50.6336 19.2523 50.578 19.3078L48.5248 21.3798C48.4118 21.4888 48.2614 21.5496 48.1049 21.5496C47.9485 21.5496 47.7981 21.4888 47.6851 21.3798L31.9335 5.4834C31.8778 5.42799 31.8336 5.36202 31.8034 5.2893C31.7732 5.21658 31.7576 5.13856 31.7576 5.05975C31.7576 4.98094 31.7732 4.90292 31.8034 4.83019C31.8336 4.75747 31.8778 4.6915 31.9335 4.6361ZM26.8157 43.2888L24.7625 45.3608C24.6496 45.4697 24.4991 45.5305 24.3427 45.5305C24.1862 45.5305 24.0358 45.4697 23.9228 45.3608L8.17122 29.4631C8.11585 29.4076 8.07191 29.3417 8.04193 29.2691C8.01195 29.1965 7.99652 29.1187 7.99652 29.0401C7.99652 28.9615 8.01195 28.8836 8.04193 28.811C8.07191 28.7384 8.11585 28.6725 8.17122 28.617L10.2232 26.545C10.2782 26.4892 10.3436 26.4449 10.4156 26.4147C10.4877 26.3844 10.565 26.3688 10.6431 26.3688C10.7211 26.3688 10.7984 26.3844 10.8705 26.4147C10.9426 26.4449 11.008 26.4892 11.0629 26.545L26.8145 42.4402C26.9259 42.553 26.9884 42.7055 26.9884 42.8645C26.9884 43.0235 26.9259 43.176 26.8145 43.2888H26.8157ZM32.7584 32.264L26.3744 38.7069L14.7636 26.9903L32.3735 9.21793L43.9844 20.9346L37.6004 27.3763V27.3775L32.7584 32.264ZM73.5447 62.974L68.0323 68.5376C67.985 68.5857 67.9286 68.6239 67.8666 68.6499C67.8045 68.676 67.7379 68.6894 67.6706 68.6894C67.6034 68.6894 67.5368 68.676 67.4747 68.6499C67.4127 68.6239 67.3563 68.5857 67.309 68.5376L51.6776 52.7645C51.6296 52.7166 51.5916 52.6596 51.5656 52.5968C51.5397 52.5341 51.5263 52.4668 51.5263 52.3988C51.5263 52.3308 51.5397 52.2635 51.5656 52.2007C51.5916 52.138 51.6296 52.081 51.6776 52.0331L52.0122 51.6952L57.19 46.4708C57.2373 46.4227 57.2936 46.3845 57.3557 46.3584C57.4178 46.3323 57.4844 46.3189 57.5516 46.3189C57.6189 46.3189 57.6855 46.3323 57.7475 46.3584C57.8096 46.3845 57.8659 46.4227 57.9132 46.4708L73.5435 62.2426C73.5914 62.2905 73.6294 62.3475 73.6554 62.4103C73.6813 62.473 73.6947 62.5403 73.6947 62.6083C73.6947 62.6763 73.6813 62.7436 73.6554 62.8064C73.6294 62.8691 73.5914 62.9261 73.5435 62.974H73.5447Z" fill="#CD0707"/>
<path d="M43.7637 63.6289H41.9986V57.5017C41.9986 56.8455 41.74 56.2161 41.2795 55.7514C40.8191 55.2867 40.1942 55.0246 39.5421 55.0227H19.6779C19.0417 55.0227 19.0417 57.3475 19.6779 57.3475H39.5421C39.6254 57.3475 39.6941 57.4166 39.6941 57.5005V63.6289H9.07587V57.5005C9.07587 57.4166 9.14329 57.3475 9.22787 57.3475H21.345C21.9812 57.3475 21.9812 55.0215 21.345 55.0215H9.22787C8.57569 55.0234 7.95088 55.2855 7.4904 55.7501C7.02993 56.2148 6.77135 56.8443 6.77136 57.5005V63.6301H5.00619C3.67734 63.6334 2.40403 64.1668 1.46553 65.1134C0.527041 66.0599 -3.96415e-06 67.3424 0 68.6794L0 71.9897C0 73.0627 0.864194 73.9359 1.92819 73.9359H46.8417C47.9045 73.9359 48.7687 73.0627 48.7687 71.9897V68.6794C48.7694 67.3422 48.2428 66.0593 47.3045 65.1122C46.3662 64.1651 45.0928 63.6312 43.7637 63.6277V63.6289ZM46.4642 71.611H2.30452V68.6806C2.30451 67.9592 2.58875 67.2672 3.09494 66.7563C3.60113 66.2454 4.28798 65.9572 5.00497 65.955H43.765C44.4817 65.9576 45.1683 66.2459 45.6742 66.7568C46.1801 67.2676 46.4642 67.9594 46.4642 68.6806V71.611Z" fill="#CD0707"/>
</g>
<defs>
<clipPath id="clip0_36_76">
<rect width="76" height="74" fill="white"/>
</clipPath>
</defs>
</svg>
