<svg width="77" height="78" viewBox="0 0 77 78" fill="none" xmlns="http://www.w3.org/2000/svg">
<g clip-path="url(#clip0_36_62)">
<path d="M55.1743 0H9.07059C4.12206 0.00639344 0.112925 4.00997 0.105225 8.95082V54.8775C0.111641 59.8183 4.12206 63.8219 9.07059 63.8283H23.1577V61.2709H9.07059C7.37101 61.2675 5.7422 60.5924 4.54162 59.3938C3.34103 58.1952 2.66675 56.5709 2.66676 54.8775V33.2459H10.8916C11.1094 33.2299 11.3203 33.1627 11.5069 33.0497C11.6935 32.9367 11.8505 32.7811 11.965 32.5959C12.0795 32.4106 12.1482 32.2009 12.1656 31.9841C12.1829 31.7672 12.1483 31.5493 12.0646 31.3483C11.5177 30.1071 11.4872 28.7004 11.98 27.4368C12.4727 26.1733 13.4483 25.156 14.6929 24.6084C15.3089 24.3383 15.9724 24.1919 16.6453 24.1776C17.3182 24.1633 17.9873 24.2814 18.6143 24.5251C19.2413 24.7689 19.8139 25.1334 20.2994 25.5979C20.7848 26.0625 21.1735 26.6178 21.4432 27.2322C21.7287 27.8811 21.8762 28.5818 21.8762 29.2903C21.8762 29.9987 21.7287 30.6995 21.4432 31.3483C21.3476 31.5485 21.3038 31.7693 21.3158 31.9907C21.3278 32.212 21.3953 32.4268 21.512 32.6155C21.6288 32.8042 21.7911 32.9608 21.9842 33.0709C22.1773 33.181 22.395 33.2412 22.6175 33.2459H30.8411V40.918C30.418 40.8461 29.9895 40.8106 29.5603 40.8119C25.3163 40.8106 21.8757 44.2439 21.8731 48.4815C21.8719 49.9742 22.3077 51.4349 23.1271 52.6845C23.9466 53.9342 25.1142 54.9185 26.4867 55.5168L27.5121 53.1743C26.2653 52.6315 25.2855 51.6182 24.7877 50.3565C24.29 49.0948 24.3148 47.6879 24.8569 46.4445C25.2541 45.5305 25.9111 44.7523 26.7469 44.2059C27.5827 43.6594 28.5607 43.3686 29.5603 43.3693C30.2661 43.3693 30.9643 43.5163 31.6098 43.8015C31.8048 43.8866 32.018 43.9219 32.2302 43.9041C32.4423 43.8864 32.6467 43.8162 32.8247 43.6998C33.0027 43.5835 33.1488 43.4248 33.2497 43.238C33.3506 43.0512 33.4032 42.8423 33.4026 42.6302V33.2459H39.9142C39.5852 35.2055 40.0301 37.2159 41.1557 38.8558C42.2813 40.4958 44.0002 41.6381 45.9523 42.0433L46.4656 39.5383C45.3086 39.2985 44.2696 38.6692 43.5232 37.7562C42.7768 36.8432 42.3684 35.7021 42.3667 34.5246C42.3667 33.82 42.5143 33.1231 42.8004 32.4787C42.8856 32.2843 42.9209 32.072 42.9031 31.8607C42.8854 31.6493 42.8152 31.4457 42.6988 31.2682C42.5825 31.0906 42.4237 30.9447 42.2367 30.8435C42.0496 30.7423 41.8403 30.6891 41.6275 30.6885H33.4026V24.1864C33.8261 24.2593 34.2547 24.2951 34.6834 24.2951C38.9273 24.2951 42.3667 20.8605 42.3667 16.623C42.3667 12.3854 38.9273 8.95082 34.6834 8.95082C34.2541 8.95037 33.8256 8.98674 33.4026 9.05951V2.55738H55.1743C56.8739 2.56076 58.5027 3.23585 59.7033 4.43449C60.9039 5.63312 61.5782 7.25739 61.5782 8.95082V30.6885H53.352C53.1392 30.6889 52.9298 30.7422 52.7428 30.8433C52.5557 30.9445 52.3969 31.0905 52.2807 31.2681C52.1644 31.4458 52.0944 31.6494 52.0769 31.8608C52.0593 32.0721 52.0949 32.2845 52.1803 32.4787C52.4652 33.1231 52.6128 33.82 52.6128 34.5246H55.1743C55.1743 34.0962 55.1384 33.6679 55.0653 33.2459H62.8577C63.026 33.2457 63.1927 33.2125 63.3482 33.1482C63.5037 33.0838 63.6449 32.9896 63.7638 32.8709C63.8828 32.7521 63.9771 32.6112 64.0413 32.4562C64.1056 32.3011 64.1386 32.135 64.1384 31.9672V8.95082C64.132 4.00997 60.1216 0.00639344 55.1743 0ZM34.6834 11.5082C35.3568 11.5089 36.0235 11.6417 36.6454 11.8991C37.2674 12.1565 37.8323 12.5334 38.308 13.0084C38.7838 13.4833 39.1609 14.047 39.418 14.6672C39.6751 15.2874 39.8071 15.9519 39.8064 16.623C39.8064 19.4489 37.5118 21.7377 34.6834 21.7377C33.9775 21.7377 33.2794 21.5907 32.6339 21.3055C32.4389 21.2204 32.2256 21.1851 32.0135 21.2029C31.8013 21.2206 31.597 21.2908 31.419 21.4071C31.2409 21.5235 31.0948 21.6822 30.9939 21.869C30.893 22.0558 30.8405 22.2647 30.8411 22.4768V30.5824H24.3384C24.4026 30.195 24.4359 29.8024 24.4385 29.4098V29.3433V29.3037C24.4385 25.0661 20.9979 21.6316 16.7539 21.6316C12.5099 21.6316 9.07059 25.0661 9.07059 29.3037V29.4098C9.07188 29.8024 9.10524 30.195 9.16941 30.5824H2.66676V8.95082C2.66675 7.25739 3.34103 5.63312 4.54162 4.43449C5.7422 3.23585 7.37101 2.56076 9.07059 2.55738H30.8411V10.7691C30.8411 10.981 30.8941 11.1895 30.9952 11.376C31.0963 11.5624 31.2423 11.7208 31.4201 11.837C31.598 11.9532 31.802 12.0235 32.0139 12.0415C32.2258 12.0596 32.4388 12.0248 32.6339 11.9404C33.2792 11.6552 33.9774 11.508 34.6834 11.5082Z" fill="#CD0707"/>
<path d="M74.2062 54.9606L63.439 47.5583L59.3041 36.527C59.2435 36.3638 59.15 36.2147 59.0294 36.0888C58.9087 35.963 58.7635 35.8631 58.6026 35.7952C58.4418 35.7274 58.2687 35.6932 58.094 35.6946C57.9193 35.6959 57.7468 35.7329 57.587 35.8033L49.262 39.4795C48.9612 39.6122 48.723 39.855 48.5967 40.1577C48.4703 40.4604 48.4655 40.7999 48.5832 41.106C48.7218 41.464 48.8514 41.7351 48.9887 42.0164C49.126 42.2977 49.2518 42.5611 49.4071 42.9767C49.8852 44.25 49.8387 45.6599 49.2776 46.8991C48.7164 48.1383 47.6863 49.1061 46.4118 49.5914C45.7813 49.8263 45.1106 49.9351 44.4379 49.9115C43.7653 49.8879 43.1039 49.7325 42.4916 49.454C41.8793 49.1755 41.3281 48.7794 40.8696 48.2885C40.411 47.7975 40.0541 47.2213 39.8193 46.5928C39.5705 45.9291 39.4625 45.2211 39.5023 44.5137C39.5133 44.3017 39.4712 44.0904 39.3798 43.8987C39.2884 43.707 39.1505 43.541 38.9786 43.4157C38.8067 43.2903 38.6062 43.2096 38.3952 43.1807C38.1841 43.1519 37.9692 43.1758 37.7698 43.2504L28.8724 46.5967C28.5549 46.7166 28.2981 46.957 28.1581 47.2652C28.0181 47.5734 28.0064 47.9243 28.1255 48.2411L31.3185 56.761C30.895 56.8377 30.4805 56.9528 30.0762 57.1037C28.1612 57.8188 26.6091 59.2617 25.7605 61.1157C24.912 62.9697 24.8362 65.0834 25.5499 66.993C25.9401 68.0417 26.5558 68.9927 27.3539 69.7792C28.1519 70.5658 29.113 71.1688 30.1697 71.5462C31.2264 71.9235 32.3532 72.0659 33.471 71.9635C34.5888 71.861 35.6706 71.5162 36.6405 70.9531L38.9299 77.0602C38.9886 77.2174 39.0778 77.3616 39.1925 77.4844C39.3072 77.6072 39.4451 77.7063 39.5983 77.7759C39.7516 77.8455 39.917 77.8843 40.0853 77.8901C40.2536 77.8958 40.4214 77.8685 40.579 77.8095L40.5803 77.8082L53.2699 73.0349C53.6636 73.8806 54.2263 74.6375 54.9236 75.2593C55.6209 75.881 56.4381 76.3546 57.3252 76.651L58.1337 74.2215C57.0781 73.8655 56.2012 73.117 55.6864 72.1321L59.548 70.6808C60.1648 72.4173 61.307 73.9205 62.817 74.9833C64.327 76.0462 66.1307 76.6163 67.9795 76.6152V74.0578C66.2828 74.0454 64.6594 73.3674 63.461 72.1706C62.2626 70.9739 61.5856 69.3549 61.5769 67.6644C61.5772 67.3254 61.4424 67.0003 61.2022 66.7603L56.7426 62.3079C56.4225 61.9855 56.2287 61.5595 56.1965 61.1071C56.1642 60.6546 56.2956 60.2056 56.5668 59.8413C56.7278 59.6242 56.9344 59.4447 57.1723 59.3152C57.4101 59.1858 57.6734 59.1097 57.9438 59.092C58.2144 59.0693 58.4867 59.1068 58.741 59.2017C58.9953 59.2965 59.2254 59.4464 59.4145 59.6406L68.3555 68.5684L70.1663 66.7603L67.5213 64.1186C68.1727 62.1718 68.1319 60.061 67.4058 58.1407L65.006 51.7409L72.7458 57.0615C73.7724 57.7801 74.3833 58.9539 74.3833 60.2045V76.7213H76.9448V60.2045C76.9443 59.1756 76.6952 58.1619 76.2186 57.2491C75.7419 56.3364 75.0516 55.5514 74.2062 54.9606ZM65.0085 59.037C65.3615 59.9756 65.4898 60.9845 65.382 61.9819L61.224 57.8325C60.8164 57.415 60.3302 57.0817 59.7932 56.8517C59.2562 56.6217 58.6789 56.4996 58.0944 56.4922C57.5099 56.4848 56.9297 56.5924 56.387 56.8088C55.8443 57.0252 55.3498 57.3461 54.9318 57.7532C54.5065 58.1677 54.1686 58.6625 53.9379 59.2089C53.7072 59.7552 53.5884 60.3419 53.5884 60.9346C53.5884 61.5273 53.7072 62.1141 53.9379 62.6604C54.1686 63.2067 54.5065 63.7016 54.9318 64.116L58.982 68.1605L40.8844 74.9669L38.4435 68.4546C38.3686 68.2557 38.2452 68.0786 38.0843 67.9393C37.9234 67.8 37.7302 67.7028 37.5222 67.6566C37.3141 67.6104 37.0978 67.6166 36.8927 67.6747C36.6877 67.7327 36.5004 67.8408 36.3479 67.9891C35.8593 68.4504 35.2843 68.8111 34.6556 69.0505C34.027 69.2899 33.3571 69.4033 32.6843 69.3843C32.0116 69.3653 31.3492 69.2142 30.7352 68.9397C30.1211 68.6652 29.5675 68.2726 29.106 67.7846C28.5288 67.1739 28.111 66.4314 27.8892 65.6222C27.6674 64.813 27.6484 63.962 27.8339 63.1438C28.0194 62.3256 28.4038 61.5653 28.9532 60.9297C29.5026 60.2942 30.2002 59.8027 30.9848 59.4986C31.3929 59.349 31.819 59.2531 32.2515 59.2135C32.5171 59.1803 32.7866 59.1713 33.0548 59.1867C33.2675 59.1977 33.4797 59.1559 33.6721 59.0648C33.8645 58.9737 34.0311 58.8362 34.1568 58.6649C34.2825 58.4936 34.3634 58.2937 34.3921 58.0834C34.4209 57.8731 34.3966 57.659 34.3215 57.4604L30.9758 48.5441L37.0742 46.2514C37.2838 47.3469 37.7311 48.3836 38.3847 49.2889C39.0383 50.1942 39.8825 50.9463 40.8582 51.4927C41.834 52.039 42.9178 52.3664 44.0337 52.4519C45.1497 52.5373 46.271 52.3789 47.3191 51.9876C49.2281 51.2622 50.7717 49.814 51.6131 47.9589C52.4546 46.1039 52.5256 43.9925 51.8107 42.0855C51.7119 41.8194 51.6032 41.5571 51.4848 41.2991L57.3753 38.6944L65.0085 59.037Z" fill="#CD0707"/>
</g>
<defs>
<clipPath id="clip0_36_62">
<rect width="77" height="78" fill="white"/>
</clipPath>
</defs>
</svg>
