<svg width="85" height="75" viewBox="0 0 85 75" fill="none" xmlns="http://www.w3.org/2000/svg">
<g clip-path="url(#clip0_36_38)">
<path fill-rule="evenodd" clip-rule="evenodd" d="M67.258 20.058L75.594 28.333C76.051 28.786 76.051 29.523 75.594 29.976C75.373 30.195 75.079 30.316 74.767 30.316C74.454 30.316 74.16 30.195 73.939 29.976L65.315 21.415C66.115 21.073 66.77 20.618 67.258 20.058ZM63.758 19.422V19.388C63.758 19.078 63.878 18.786 64.101 18.567C64.2831 18.3867 64.5191 18.2708 64.7731 18.237C65.0271 18.2033 65.2852 18.2535 65.508 18.38C65.167 18.829 64.568 19.184 63.758 19.422ZM82.568 29.398C82.5123 30.2515 82.2749 31.0833 81.8717 31.8376C81.4685 32.592 80.9088 33.2515 80.23 33.772L76.802 36.405H76.799L63.379 46.712C62.2255 47.5922 60.7968 48.0342 59.3478 47.9591C57.8987 47.884 56.5234 47.2967 55.467 46.302C55.421 46.258 52.849 43.706 47.75 38.646C45.589 36.401 45.404 33.049 47.24 30.691L54.594 21.257C56.837 21.855 59 22.174 60.934 22.174C61.51 22.174 62.056 22.144 62.571 22.089L72.229 31.674C72.9037 32.3437 73.8164 32.7184 74.767 32.716C75.7176 32.7184 76.6303 32.3437 77.305 31.674C77.6376 31.344 77.9016 30.9514 78.0817 30.5189C78.2618 30.0864 78.3546 29.6225 78.3546 29.154C78.3546 28.6855 78.2618 28.2216 78.0817 27.7891C77.9016 27.3566 77.6376 26.964 77.305 26.634L67.465 16.869C67.1316 16.5367 66.7359 16.2734 66.3005 16.0943C65.8652 15.9151 65.3988 15.8236 64.928 15.825C63.968 15.825 63.068 16.195 62.39 16.869C62.0104 17.2424 61.7205 17.697 61.5419 18.1986C61.3633 18.7002 61.3008 19.2357 61.359 19.765C61.219 19.769 61.079 19.772 60.935 19.772C59.487 19.772 57.885 19.57 56.208 19.185L60.277 13.965C60.8055 13.2885 61.4715 12.7319 62.231 12.3318C62.9905 11.9317 63.8262 11.6973 64.683 11.644C65.5401 11.5895 66.399 11.7171 67.2032 12.0183C68.0074 12.3196 68.7387 12.7878 69.349 13.392L80.807 24.766C81.414 25.3678 81.8853 26.0924 82.1892 26.8913C82.4931 27.6902 82.6226 28.5449 82.569 29.398H82.568ZM47.408 52.628C47.3889 52.647 47.3654 52.6609 47.3395 52.6684C47.3136 52.6759 47.2863 52.6768 47.26 52.671C46.832 52.5713 46.3858 52.5813 45.9627 52.7002C45.5396 52.8191 45.1534 53.0429 44.84 53.351L40.828 57.333L36.484 59.598C36.0749 59.8094 35.7413 60.1423 35.529 60.551L33.426 64.589L30.123 66.171C29.739 66.354 29.418 66.641 29.192 66.998L26.237 71.682L21.477 72.286L22.086 67.562L26.804 64.629C27.1635 64.4053 27.4526 64.0847 27.638 63.704L29.231 60.424L33.299 58.337C33.7091 58.128 34.0444 57.7972 34.259 57.39L36.541 53.077L40.551 49.096C40.8608 48.7872 41.0864 48.4043 41.2065 47.9837C41.3265 47.5631 41.337 47.1188 41.237 46.693C41.2307 46.6668 41.2313 46.6394 41.2386 46.6135C41.246 46.5876 41.2599 46.564 41.279 46.545L46.782 41.082L52.912 47.166L47.409 52.629L47.408 52.628ZM50.822 17.416C49.0688 16.6763 47.3848 15.7821 45.79 14.744L44.987 6.336C44.9567 6.02641 44.9015 5.71975 44.822 5.419H44.875C47.827 5.419 51.418 6.255 54.987 7.774C56.949 8.61 58.765 9.592 60.34 10.66C59.5871 11.162 58.9196 11.7815 58.363 12.495L53.693 18.488C52.7203 18.1741 51.7624 17.8164 50.822 17.416ZM37.98 9.92C37.802 9.99445 37.6109 10.0325 37.418 10.032C37.0358 10.0331 36.6688 9.88246 36.3975 9.61324C36.1263 9.34403 35.9729 8.97818 35.971 8.596C35.9719 8.39168 36.0162 8.18989 36.101 8.00397C36.1857 7.81805 36.309 7.65225 36.4626 7.51754C36.6162 7.38283 36.7967 7.28227 36.9921 7.22253C37.1875 7.16279 37.3933 7.14523 37.596 7.171C37.46 8.03 37.591 8.955 37.98 9.92ZM41.58 23.18L22.047 42.57C21.547 43.066 20.882 43.34 20.175 43.34C19.8278 43.341 19.4839 43.2735 19.1628 43.1413C18.8418 43.0092 18.5499 42.8151 18.304 42.57L3.19202 27.57C2.94613 27.3271 2.75098 27.0378 2.61793 26.7188C2.48489 26.3999 2.41659 26.0576 2.41702 25.712C2.41702 25.01 2.69302 24.35 3.19202 23.854L11.882 15.236C11.884 15.233 11.882 15.228 11.886 15.225L22.726 4.465C23.4663 3.72882 24.3599 3.16502 25.3431 2.81379C26.3263 2.46255 27.3748 2.33254 28.414 2.433L39.466 3.473C40.2629 3.54643 41.0093 3.895 41.5772 4.45885C42.1451 5.02271 42.4989 5.76666 42.578 6.563L43.17 12.758C42.9725 12.5835 42.7785 12.4051 42.588 12.223C42.4337 12.0737 42.282 11.9216 42.133 11.767C41.9287 11.554 41.7313 11.3346 41.541 11.109C41.3689 10.9039 41.2044 10.6924 41.048 10.475L40.898 10.259C41.2449 9.54259 41.3595 8.73573 41.2258 7.95106C41.0921 7.16638 40.7167 6.44304 40.152 5.882C39.4236 5.16309 38.4414 4.76 37.418 4.76C36.3946 4.76 35.4124 5.16309 34.684 5.882C34.3257 6.23732 34.0412 6.66008 33.8471 7.1259C33.653 7.59171 33.5531 8.09136 33.5531 8.596C33.5531 9.10064 33.653 9.60028 33.8471 10.0661C34.0412 10.5319 34.3257 10.9547 34.684 11.31C35.411 12.0309 36.3941 12.4344 37.418 12.432C38.0303 12.4323 38.634 12.288 39.18 12.011C39.527 12.478 39.926 12.95 40.38 13.423C41.258 14.34 42.308 15.233 43.487 16.079L43.627 17.534C43.7264 18.5682 43.5943 19.6115 43.2402 20.5883C42.8861 21.565 42.319 22.4507 41.58 23.181V23.18ZM82.518 23.066L71.06 11.694C70.0041 10.6491 68.6933 9.89849 67.2576 9.51677C65.822 9.13506 64.3114 9.13548 62.876 9.518C60.913 8.032 58.54 6.674 55.942 5.568C52.077 3.923 48.149 3.017 44.876 3.017C44.423 3.017 43.99 3.036 43.575 3.071C42.5838 1.93625 41.1951 1.22505 39.695 1.084L28.643 0.0429982C27.2495 -0.0912303 25.8436 0.083267 24.5251 0.554078C23.2067 1.02489 22.0083 1.78044 21.015 2.767L9.45002 14.247C9.44802 14.249 9.44901 14.254 9.44701 14.257L1.48202 22.157C1.01283 22.6225 0.640435 23.1763 0.386307 23.7865C0.132179 24.3966 0.00134277 25.051 0.00134277 25.712C0.00134277 26.373 0.132179 27.0274 0.386307 27.6375C0.640435 28.2477 1.01283 28.8015 1.48202 29.267L16.592 44.269C17.0629 44.7382 17.6218 45.1099 18.2367 45.3627C18.8515 45.6154 19.5102 45.7443 20.175 45.742C20.8398 45.7443 21.4985 45.6153 22.1133 45.3626C22.7282 45.1098 23.2871 44.7382 23.758 44.269L43.291 24.879C44.2309 23.9504 44.9638 22.8337 45.4419 21.602C45.9199 20.3703 46.1323 19.0515 46.065 17.732C47.2944 18.4369 48.5647 19.068 49.869 19.622C50.621 19.942 51.375 20.234 52.126 20.497L45.326 29.221C43.002 32.204 42.994 36.324 45.152 39.305L39.569 44.847C39.2593 45.1556 39.0336 45.5383 38.9136 45.9588C38.7935 46.3792 38.783 46.8234 38.883 47.249C38.892 47.284 37.535 48.666 34.812 51.396C34.652 51.556 34.516 51.738 34.41 51.938L32.142 56.227L28.07 58.316C27.64 58.536 27.287 58.898 27.076 59.332L25.479 62.618L20.632 65.632C20.382 65.7863 20.1697 65.9945 20.0105 66.2414C19.8513 66.4883 19.7493 66.7676 19.712 67.059L19.008 72.519C18.9704 72.8205 19.0024 73.1267 19.1016 73.4139C19.2007 73.7011 19.3644 73.9618 19.5801 74.1759C19.7957 74.39 20.0575 74.5518 20.3455 74.6489C20.6334 74.746 20.9398 74.7758 21.241 74.736L26.741 74.038C27.0336 74.0022 27.3146 73.9017 27.5635 73.7438C27.8124 73.5859 28.023 73.3745 28.18 73.125L31.217 68.313L34.527 66.728C34.964 66.518 35.327 66.168 35.55 65.74L37.655 61.699L41.975 59.448C42.178 59.343 42.362 59.208 42.522 59.048L46.551 55.05C47.565 55.212 48.491 54.95 49.12 54.328L54.702 48.786C56.1522 49.8177 57.8883 50.3711 59.668 50.369C61.494 50.369 63.326 49.789 64.861 48.611L77.799 38.674H77.801L81.71 35.671C82.6603 34.9432 83.444 34.0205 84.0085 32.965C84.573 31.9095 84.9052 30.7455 84.983 29.551C85.0585 28.3569 84.8776 27.1605 84.4525 26.0421C84.0273 24.9238 83.3677 23.9093 82.518 23.067V23.066Z" fill="#CD0707"/>
</g>
<defs>
<clipPath id="clip0_36_38">
<rect width="85" height="75" fill="white"/>
</clipPath>
</defs>
</svg>
