<svg width="76" height="70" viewBox="0 0 76 70" fill="none" xmlns="http://www.w3.org/2000/svg">
<g clip-path="url(#clip0_36_44)">
<mask id="mask0_36_44" style="mask-type:alpha" maskUnits="userSpaceOnUse" x="0" y="0" width="76" height="70">
<path d="M0 0.722229H75.2288V70H0V0.722229Z" fill="white"/>
</mask>
<g mask="url(#mask0_36_44)">
<path fill-rule="evenodd" clip-rule="evenodd" d="M58.7335 67.2989C51.1469 67.2989 44.9752 61.2011 44.9752 53.7078C44.9752 46.2145 51.1469 40.1189 58.7335 40.1189C66.3223 40.1189 72.4928 46.2145 72.4928 53.7078C72.4928 61.2011 66.3212 67.2989 58.7346 67.2989H58.7335ZM5.548 61.4022C4.91295 61.4037 4.30326 61.1546 3.85275 60.7097C3.40224 60.2647 3.14772 59.6602 3.14506 59.0289V22.6267H67.6836V40.0433C65.0176 38.3277 61.9093 37.4155 58.7335 37.4167C49.6403 37.4167 42.2415 44.7245 42.2415 53.7078C42.2415 56.49 42.9545 59.1089 44.2041 61.4022H5.548ZM3.14506 11.1378C3.14506 9.8289 4.22359 8.76445 5.548 8.76445H17.6789V13.6578H20.5234V8.76445H50.3053V13.6578H53.1497V8.76445H65.2818C66.6062 8.76445 67.6847 9.8289 67.6847 11.1378V19.5189H3.14506V11.1378ZM70.8275 42.6689V11.1378C70.8275 8.12445 68.3318 5.65778 65.2806 5.65778H53.1497V0.722229H50.3053V5.65778H20.5234V0.722229H17.6789V5.65778H5.548C2.49682 5.65778 0 8.12445 0 11.1378V59.0289C0 62.0422 2.49571 64.5089 5.548 64.5089H46.4215C49.4447 67.8689 53.8371 70 58.7335 70C67.8278 70 75.2277 62.6911 75.2277 53.7078C75.2277 49.4467 73.5501 45.5745 70.8275 42.6689Z" fill="#CD0707"/>
</g>
<path fill-rule="evenodd" clip-rule="evenodd" d="M17.5694 37.7778H20.1176V26.6667H19.8449L14.5294 28.3133V30.1033L17.5694 29.2878V37.7778ZM36.8712 32.9589C37.5607 32.1367 38.048 31.4144 38.3319 30.7978C38.6169 30.18 38.7589 29.5722 38.7589 28.9756C38.7589 27.8889 38.4426 27.0467 37.8111 26.45C37.1785 25.8533 36.2911 25.5556 35.1477 25.5556C34.4023 25.5556 33.7339 25.7289 33.146 26.0733C32.5559 26.4178 32.0999 26.8956 31.778 27.5011C31.4522 28.1223 31.286 28.8139 31.2941 29.5144H33.5037C33.5037 28.9067 33.6456 28.4178 33.9329 28.0444C34.2201 27.6722 34.6124 27.4856 35.1097 27.4856C35.5724 27.4856 35.9279 27.6378 36.1771 27.9456C36.4263 28.2511 36.5504 28.6722 36.5504 29.2067C36.5504 29.5989 36.4319 30.0144 36.1961 30.4511C35.9592 30.8844 35.5948 31.3956 35.1008 31.9811L31.5143 36.1378V37.7778H39.1176V35.8489H34.3486L36.87 32.9589H36.8712ZM18.5384 52.4844H15.8314L18.3786 48.8133L18.5384 48.5622V52.4844ZM20.9659 45.5556H18.5127L13.4117 52.8744L13.5202 54.2633H18.5384V56.6667H20.9659V54.2622H22.3529V52.4844H20.967V45.5556H20.9659ZM35.5903 49.6878C34.9767 49.6878 34.3978 49.84 33.8513 50.1433L34.1374 47.5511H38.7365V45.5556H32.2564L31.588 51.6833L33.4154 52.1556L33.6389 51.94C33.9764 51.6433 34.419 51.4933 34.9633 51.4933C35.5568 51.4933 36.0139 51.6744 36.338 52.04C36.661 52.4044 36.8231 52.9289 36.8231 53.6133C36.8231 54.3244 36.6812 54.8767 36.4006 55.2644C36.1212 55.6533 35.7211 55.8489 35.2014 55.8489C34.7353 55.8489 34.3587 55.71 34.0703 55.4311C33.782 55.1511 33.6143 54.7611 33.5674 54.26H31.2941C31.3164 54.9433 31.4997 55.5522 31.8462 56.0889C32.1927 56.6233 32.6654 57.04 33.2645 57.3356C33.8691 57.6319 34.5351 57.7834 35.2092 57.7778C36.0094 57.7778 36.7035 57.6089 37.2914 57.2689C37.8743 56.9335 38.345 56.435 38.6449 55.8356C38.96 55.22 39.1176 54.5244 39.1176 53.7444C39.1176 52.4644 38.8047 51.4689 38.1799 50.7556C37.5563 50.0444 36.6923 49.6878 35.5903 49.6878ZM51.9426 36.9856C51.4788 36.9856 51.0887 36.8444 50.7691 36.5611C50.6144 36.4243 50.4917 36.2553 50.4098 36.0662C50.3279 35.8771 50.2888 35.6725 50.2952 35.4667H48.0588C48.0588 36.4956 48.4153 37.3222 49.1306 37.95C49.8448 38.5767 50.7657 38.8889 51.8879 38.8889C53.0904 38.8889 54.0561 38.5711 54.787 37.9333C55.5169 37.2967 55.8823 36.45 55.8823 35.3922C55.8823 34.7389 55.7259 34.1722 55.414 33.6922C55.1022 33.2144 54.6283 32.8544 53.9935 32.6144C54.5043 32.37 54.9167 32.0189 55.2319 31.5611C55.547 31.1033 55.7035 30.6033 55.7035 30.0578C55.7035 29.0022 55.366 28.1722 54.6909 27.5711C54.0147 26.9678 53.0815 26.6667 51.8879 26.6667C51.2027 26.6667 50.5746 26.8056 50.0046 27.0833C49.4619 27.3382 49.0013 27.7383 48.6746 28.2389C48.355 28.7377 48.1891 29.3186 48.1974 29.91H50.4338C50.4338 29.5133 50.5791 29.1911 50.8675 28.9433C51.1558 28.6944 51.5146 28.5711 51.9426 28.5711C52.4176 28.5711 52.7898 28.7044 53.0614 28.9711C53.3319 29.2378 53.4671 29.6111 53.4671 30.0911C53.4671 30.5856 53.3307 30.9844 53.058 31.2833C52.7842 31.5833 52.364 31.7333 51.7973 31.7333H50.6048V33.58H51.7895C53.0267 33.58 53.6459 34.1722 53.6459 35.36C53.6459 35.85 53.4939 36.2444 53.1933 36.5411C52.8915 36.8367 52.4746 36.9856 51.9426 36.9856ZM63.7316 48.3844L57.5107 55L54.739 52.0533C54.5645 51.8621 54.3518 51.7092 54.1143 51.6046C53.8769 51.5 53.6201 51.4459 53.3604 51.4459C53.1007 51.4459 52.8438 51.5 52.6064 51.6046C52.369 51.7092 52.1562 51.8621 51.9817 52.0533C51.6147 52.454 51.4112 52.9764 51.4112 53.5183C51.4112 54.0603 51.6147 54.5827 51.9817 54.9833L56.1327 59.3933C56.5127 59.7978 57.0123 60.0011 57.5107 60.0011C58.0081 60.0011 58.5077 59.7978 58.8888 59.3933L66.4877 51.3156C66.8552 50.9151 67.059 50.3926 67.059 49.8506C67.059 49.3085 66.8552 48.786 66.4877 48.3856C66.3133 48.1943 66.1007 48.0415 65.8633 47.9369C65.626 47.8323 65.3692 47.7782 65.1096 47.7782C64.85 47.7782 64.5933 47.8323 64.3559 47.9369C64.1186 48.0415 63.9059 48.1943 63.7316 48.3856" fill="#CD0707"/>
</g>
<defs>
<clipPath id="clip0_36_44">
<rect width="76" height="70" fill="white"/>
</clipPath>
</defs>
</svg>
