<svg width="140" height="129" viewBox="0 0 140 129" fill="none" xmlns="http://www.w3.org/2000/svg">
<g clip-path="url(#clip0_111_133)">
<path d="M15.9248 72.51C16.2606 83.4445 20.0696 94.0495 26.8818 103.017C33.694 111.984 43.2116 118.922 54.2605 122.974C65.3095 127.026 77.4065 128.015 89.0596 125.819C100.713 123.624 111.412 118.34 119.838 110.618C128.264 102.897 134.048 93.0765 136.477 82.3681C138.905 71.6597 137.872 60.5317 133.505 50.3567C129.138 40.1817 121.628 31.4048 111.9 25.1086C102.173 18.8124 90.6547 15.2722 78.7656 14.9248" stroke="#CD0707" stroke-width="1.6" stroke-miterlimit="10"/>
<path d="M76.8546 95.0245C91.3243 95.0245 103.054 84.2374 103.054 70.9309C103.054 57.6244 91.3243 46.8373 76.8546 46.8373C62.3848 46.8373 50.6548 57.6244 50.6548 70.9309C50.6548 84.2374 62.3848 95.0245 76.8546 95.0245Z" stroke="#CD0707" stroke-width="1.6" stroke-miterlimit="10"/>
<path d="M76.8546 84.5568C85.0378 84.5568 91.6716 78.4563 91.6716 70.9309C91.6716 63.4056 85.0378 57.3051 76.8546 57.3051C68.6714 57.3051 62.0376 63.4056 62.0376 70.9309C62.0376 78.4563 68.6714 84.5568 76.8546 84.5568Z" stroke="#CD0707" stroke-miterlimit="10"/>
<path d="M95.4382 37.8978C97.3042 37.8978 98.817 36.5066 98.817 34.7906C98.817 33.0745 97.3042 31.6833 95.4382 31.6833C93.5721 31.6833 92.0593 33.0745 92.0593 34.7906C92.0593 36.5066 93.5721 37.8978 95.4382 37.8978Z" fill="#CD0707"/>
<path d="M75.3591 34.4085C77.2251 34.4085 78.7379 33.0174 78.7379 31.3013C78.7379 29.5852 77.2251 28.1941 75.3591 28.1941C73.493 28.1941 71.9802 29.5852 71.9802 31.3013C71.9802 33.0174 73.493 34.4085 75.3591 34.4085Z" fill="#CD0707"/>
<path d="M111.169 50.6576C113.035 50.6576 114.548 49.2665 114.548 47.5504C114.548 45.8344 113.035 44.4432 111.169 44.4432C109.303 44.4432 107.79 45.8344 107.79 47.5504C107.79 49.2665 109.303 50.6576 111.169 50.6576Z" fill="#CD0707"/>
<path d="M119.395 67.8237C121.261 67.8237 122.774 66.4326 122.774 64.7165C122.774 63.0005 121.261 61.6093 119.395 61.6093C117.529 61.6093 116.016 63.0005 116.016 64.7165C116.016 66.4326 117.529 67.8237 119.395 67.8237Z" fill="#CD0707"/>
<path d="M117.345 86.6707C119.211 86.6707 120.724 85.2796 120.724 83.5635C120.724 81.8474 119.211 80.4563 117.345 80.4563C115.479 80.4563 113.966 81.8474 113.966 83.5635C113.966 85.2796 115.479 86.6707 117.345 86.6707Z" fill="#CD0707"/>
<path d="M106.156 102.614C108.022 102.614 109.535 101.223 109.535 99.5071C109.535 97.791 108.022 96.3998 106.156 96.3998C104.29 96.3998 102.777 97.791 102.777 99.5071C102.777 101.223 104.29 102.614 106.156 102.614Z" fill="#CD0707"/>
<path d="M88.2926 112.038C90.1587 112.038 91.6715 110.647 91.6715 108.931C91.6715 107.214 90.1587 105.823 88.2926 105.823C86.4266 105.823 84.9138 107.214 84.9138 108.931C84.9138 110.647 86.4266 112.038 88.2926 112.038Z" fill="#CD0707"/>
<path d="M67.7983 112.522C69.6643 112.522 71.1771 111.131 71.1771 109.414C71.1771 107.698 69.6643 106.307 67.7983 106.307C65.9322 106.307 64.4194 107.698 64.4194 109.414C64.4194 111.131 65.9322 112.522 67.7983 112.522Z" fill="#CD0707"/>
<path d="M49.4084 104.244C51.2745 104.244 52.7872 102.853 52.7872 101.137C52.7872 99.421 51.2745 98.0298 49.4084 98.0298C47.5423 98.0298 46.0295 99.421 46.0295 101.137C46.0295 102.853 47.5423 104.244 49.4084 104.244Z" fill="#CD0707"/>
<path d="M37.1117 89.1412C38.9778 89.1412 40.4906 87.75 40.4906 86.034C40.4906 84.3179 38.9778 82.9268 37.1117 82.9268C35.2457 82.9268 33.7329 84.3179 33.7329 86.034C33.7329 87.75 35.2457 89.1412 37.1117 89.1412Z" fill="#CD0707"/>
<path d="M33.9821 70.3452C35.8482 70.3452 37.3609 68.954 37.3609 67.2379C37.3609 65.5219 35.8482 64.1307 33.9821 64.1307C32.116 64.1307 30.6033 65.5219 30.6033 67.2379C30.6033 68.954 32.116 70.3452 33.9821 70.3452Z" fill="#CD0707"/>
<path d="M9.05516 40.6307L44.1881 8.32219C46.3355 6.34741 48.8848 4.78092 51.6906 3.71218C54.4963 2.64344 57.5035 2.09336 60.5404 2.09336C63.5773 2.09336 66.5844 2.64344 69.3902 3.71218C72.1959 4.78092 74.7452 6.34741 76.8926 8.32219C78.295 9.6118 79.0828 11.3609 79.0828 13.1847C79.0828 15.0085 78.295 16.7576 76.8926 18.0472L19.6303 70.7062C18.2279 71.9958 16.3259 72.7203 14.3427 72.7203C12.3595 72.7203 10.4575 71.9958 9.05516 70.7062C4.71827 66.7179 2.28183 61.3087 2.28183 55.6685C2.28183 50.0282 4.71827 44.619 9.05516 40.6307V40.6307Z" stroke="#CD0707" stroke-width="1.6" stroke-miterlimit="10"/>
<path d="M52.4271 24.9596C55.0886 24.9596 57.2461 22.9755 57.2461 20.528C57.2461 18.0805 55.0886 16.0964 52.4271 16.0964C49.7657 16.0964 47.6082 18.0805 47.6082 20.528C47.6082 22.9755 49.7657 24.9596 52.4271 24.9596Z" stroke="#CD0707" stroke-miterlimit="10"/>
<path d="M22.4608 52.5169C25.1223 52.5169 27.2798 50.5328 27.2798 48.0853C27.2798 45.6378 25.1223 43.6537 22.4608 43.6537C19.7994 43.6537 17.6418 45.6378 17.6418 48.0853C17.6418 50.5328 19.7994 52.5169 22.4608 52.5169Z" stroke="#CD0707" stroke-miterlimit="10"/>
</g>
<defs>
<clipPath id="clip0_111_133">
<rect width="140" height="129" fill="white"/>
</clipPath>
</defs>
</svg>
