<svg width="167" height="132" viewBox="0 0 167 132" fill="none" xmlns="http://www.w3.org/2000/svg">
<path d="M84.0018 27.7681C91.1 27.7681 96.8543 22.5389 96.8543 16.0883C96.8543 9.63769 91.1 4.40845 84.0018 4.40845C76.9035 4.40845 71.1492 9.63769 71.1492 16.0883C71.1492 22.5389 76.9035 27.7681 84.0018 27.7681Z" stroke="#CD0707" stroke-width="1.6" stroke-miterlimit="10"/>
<path d="M115.212 12.5236L155.148 36.0921L130.291 70.8759L90.355 47.3073L115.212 12.5236Z" stroke="#CD0707" stroke-width="1.6" stroke-linejoin="round"/>
<path d="M117.532 2.01782L164.763 29.8916L158.796 38.2423L111.564 10.3685L117.532 2.01782Z" stroke="#CD0707" stroke-width="1.6" stroke-linejoin="round"/>
<path d="M90.3462 47.3179L133.182 72.5975L127.214 80.9481L84.3787 55.6685L90.3462 47.3179Z" stroke="#CD0707" stroke-width="1.6" stroke-linejoin="round"/>
<path d="M127.662 19.8633L102.793 54.6495M142.075 28.3761L117.207 63.1623" stroke="#CD0707" stroke-linejoin="round"/>
<path d="M76.7681 47.1097L36.7865 70.6149L11.9964 35.7918L51.978 12.2866L76.7681 47.1097Z" stroke="#CD0707" stroke-width="1.6" stroke-linejoin="round"/>
<path d="M55.4302 10.3771L8.1986 38.2509L2.23112 29.9002L49.4627 2.02643L55.4302 10.3771Z" stroke="#CD0707" stroke-width="1.6" stroke-linejoin="round"/>
<path d="M82.6167 55.6626L39.7809 80.9422L33.8135 72.5916L76.6492 47.3119L82.6167 55.6626Z" stroke="#CD0707" stroke-width="1.6" stroke-linejoin="round"/>
<path d="M39.3384 19.8633L64.2072 54.6495M24.9246 28.3761L49.7933 63.1623" stroke="#CD0707" stroke-linejoin="round"/>
<path d="M109.121 97.7458H127.439V80.9481M39.7844 80.9481V97.7458H58.8821M58.8821 97.7458H49.5424V118.597L62.0604 129.973H105.943L118.461 118.597V97.7458H109.121M96.8265 16.975L107.672 23.4356M91.1111 25.8425L100.953 31.6951M70.954 16.975L59.7464 23.6383M76.6415 25.8425L65.9078 32.2525" stroke="#CD0707" stroke-width="1.6" stroke-miterlimit="10"/>
<path d="M84.0018 120.523C97.875 120.523 109.121 110.303 109.121 97.6952C109.121 85.0878 97.875 74.8676 84.0018 74.8676C70.1285 74.8676 58.8821 85.0878 58.8821 97.6952C58.8821 110.303 70.1285 120.523 84.0018 120.523Z" stroke="#CD0707" stroke-miterlimit="10"/>
<path d="M84.0017 102.636C87.0043 102.636 89.4383 100.424 89.4383 97.6951C89.4383 94.9666 87.0043 92.7546 84.0017 92.7546C80.9992 92.7546 78.5652 94.9666 78.5652 97.6951C78.5652 100.424 80.9992 102.636 84.0017 102.636Z" stroke="#CD0707" stroke-miterlimit="10"/>
<path d="M84.0019 86.294C85.3876 86.294 86.511 85.2731 86.511 84.0138C86.511 82.7544 85.3876 81.7335 84.0019 81.7335C82.6161 81.7335 81.4927 82.7544 81.4927 84.0138C81.4927 85.2731 82.6161 86.294 84.0019 86.294Z" fill="#CD0707"/>
<path d="M84.0019 113.682C85.3876 113.682 86.511 112.661 86.511 111.402C86.511 110.143 85.3876 109.122 84.0019 109.122C82.6161 109.122 81.4927 110.143 81.4927 111.402C81.4927 112.661 82.6161 113.682 84.0019 113.682Z" fill="#CD0707"/>
<path d="M98.9455 99.9754C100.331 99.9754 101.455 98.9545 101.455 97.6952C101.455 96.4358 100.331 95.4149 98.9455 95.4149C97.5597 95.4149 96.4363 96.4358 96.4363 97.6952C96.4363 98.9545 97.5597 99.9754 98.9455 99.9754Z" fill="#CD0707"/>
<path d="M69.0583 99.9754C70.444 99.9754 71.5674 98.9545 71.5674 97.6952C71.5674 96.4358 70.444 95.4149 69.0583 95.4149C67.6725 95.4149 66.5491 96.4358 66.5491 97.6952C66.5491 98.9545 67.6725 99.9754 69.0583 99.9754Z" fill="#CD0707"/>
</svg>
