<svg width="149" height="135" viewBox="0 0 149 135" fill="none" xmlns="http://www.w3.org/2000/svg">
<path d="M3.60139 40.4805L43.2772 3.36874C44.0547 2.6629 45.0957 2.26813 46.1792 2.26813C47.2627 2.26813 48.3036 2.6629 49.0812 3.36874L78.4586 29.038C79.4278 29.8739 80.0221 31.0226 80.1215 32.2523C80.2209 33.482 79.8181 34.7012 78.9943 35.6641L72.4462 43.3203L146.619 112.616V128.29L141.827 132.773H120.307L110.455 121.636L102.389 116.569L91.4655 102.231L82.7446 98.807L76.0179 88.3388L64.6479 84.6917L57.1771 75.6991L48.5157 67.848L40.2115 74.0844C39.203 74.8287 37.9385 75.2027 36.6558 75.136C35.3732 75.0694 34.1608 74.5667 33.2466 73.7224L3.48233 45.8816C2.74535 45.1446 2.34534 44.1674 2.36758 43.1584C2.38982 42.1495 2.83255 41.1885 3.60139 40.4805V40.4805Z" stroke="#CD0707" stroke-width="1.6" stroke-linecap="round" stroke-linejoin="round"/>
<path d="M68.4577 57.7697L136.35 121.302M24.4065 38.9771L43.9022 20.7414C44.4927 20.1956 45.2894 19.8896 46.1196 19.8896C46.9498 19.8896 47.7465 20.1956 48.337 20.7414L54.9447 26.9221C55.2381 27.1961 55.4708 27.5216 55.6296 27.8799C55.7884 28.2382 55.8702 28.6223 55.8702 29.0101C55.8702 29.398 55.7884 29.782 55.6296 30.1403C55.4708 30.4986 55.2381 30.8241 54.9447 31.0982L35.1217 48.9998C34.5375 49.5354 33.7521 49.8355 32.934 49.8355C32.116 49.8355 31.3305 49.5354 30.7463 48.9998L24.4065 43.0697C23.8409 42.5199 23.5249 41.7865 23.5249 41.0234C23.5249 40.2604 23.8409 39.527 24.4065 38.9771V38.9771Z" stroke="#CD0707" stroke-width="1.6" stroke-linecap="round" stroke-linejoin="round"/>
</svg>
