<svg width="162" height="114" viewBox="0 0 162 114" fill="none" xmlns="http://www.w3.org/2000/svg">
<path d="M147.756 51.321C147.208 51.4149 146.654 51.4677 146.099 51.4787C144.093 51.4378 142.15 50.7258 140.546 49.4437C138.942 48.1616 137.759 46.3748 137.165 44.337C136.571 42.2993 136.596 40.1143 137.236 38.0925C137.877 36.0707 139.1 34.3149 140.733 33.0747C138.446 29.6643 135.686 26.6416 132.548 24.1093C131.479 26.0224 129.847 27.5078 127.904 28.3357C125.962 29.1636 123.816 29.2879 121.801 28.6892C119.785 28.0906 118.011 26.8024 116.753 25.024C115.495 23.2456 114.823 21.076 114.842 18.851C114.865 17.96 114.998 17.0761 115.237 16.2218C111.21 15.504 107.098 15.504 103.071 16.2218C103.23 16.9638 103.313 17.7219 103.318 18.4829C103.309 20.6837 102.626 22.8216 101.372 24.5727C100.118 26.3238 98.3619 27.5927 96.3687 28.1871C94.3756 28.7815 92.2545 28.6691 90.3269 27.8668C88.3992 27.0646 86.7701 25.6162 85.6862 23.7412C82.4566 26.2575 79.605 29.2804 77.2288 32.7066C79.1107 33.9896 80.508 35.9358 81.1757 38.2041C81.8435 40.4725 81.7391 42.9183 80.881 45.1131C80.0228 47.3078 78.4655 49.1115 76.4821 50.2081C74.4986 51.3047 72.2155 51.6242 70.0327 51.1106C69.7166 53.1886 69.5512 55.2894 69.5381 57.3943C69.5509 59.6944 69.7411 61.9894 70.1069 64.2564C70.8132 64.0881 71.5344 64 72.2583 63.9935C74.3122 63.9824 76.3143 64.6777 77.966 65.9757C79.6177 67.2737 80.8302 69.1048 81.4227 71.1957C82.0152 73.2865 81.9558 75.525 81.2535 77.577C80.5511 79.6291 79.2434 81.3846 77.5256 82.5816C80.0126 86.0768 82.9901 89.1449 86.3538 91.6784C87.4278 89.7782 89.0589 88.3054 90.9965 87.4862C92.9341 86.667 95.0711 86.5468 97.0792 87.144C99.0873 87.7412 100.855 89.0228 102.112 90.7919C103.369 92.561 104.044 94.7198 104.035 96.9367C104.028 97.5892 103.97 98.2399 103.862 98.8823C105.502 99.1084 107.154 99.2313 108.808 99.2504C110.862 99.2276 112.912 99.0431 114.941 98.6983C114.833 98.1179 114.775 97.5283 114.768 96.9367C114.754 94.7796 115.388 92.674 116.579 90.9273C117.769 89.1805 119.454 87.8838 121.386 87.2263C123.319 86.5688 125.398 86.585 127.322 87.2723C129.245 87.9597 130.911 89.2824 132.078 91.0474C135.251 88.5978 138.06 85.6554 140.412 82.3187C138.761 81.0638 137.529 79.2822 136.895 77.2324C136.261 75.1826 136.258 72.9714 136.887 70.9197C137.515 68.8681 138.742 67.0828 140.39 65.8231C142.038 64.5634 144.02 63.8949 146.05 63.9146C146.58 63.9268 147.109 63.9796 147.632 64.0724C148.048 61.8977 148.296 59.6907 148.374 57.4732C148.32 55.4084 148.113 53.3513 147.756 51.321V51.321Z" stroke="#CD0707" stroke-width="1.6" stroke-linecap="round" stroke-linejoin="round"/>
<path d="M108.882 74.6415C117.8 74.6415 125.03 66.955 125.03 57.4732C125.03 47.9913 117.8 40.3048 108.882 40.3048C99.9636 40.3048 92.7339 47.9913 92.7339 57.4732C92.7339 66.955 99.9636 74.6415 108.882 74.6415Z" stroke="#CD0707" stroke-linecap="round" stroke-linejoin="round"/>
<path d="M108.882 66.018C113.321 66.018 116.919 62.1923 116.919 57.4732C116.919 52.7541 113.321 48.9285 108.882 48.9285C104.443 48.9285 100.845 52.7541 100.845 57.4732C100.845 62.1923 104.443 66.018 108.882 66.018Z" stroke="#CD0707" stroke-linecap="round" stroke-linejoin="round"/>
<path d="M54.0081 58.5249C53.7366 58.5506 53.4635 58.5506 53.192 58.5249C52.5765 58.4026 51.9901 58.1507 51.4675 57.784C50.9448 57.4173 50.4963 56.9433 50.1485 56.3897C49.8006 55.8361 49.5603 55.2142 49.4417 54.5605C49.3231 53.9068 49.3286 53.2344 49.4579 52.583C49.604 51.7862 49.9334 51.0402 50.4167 50.4117C50.9 49.7832 51.5221 49.2917 52.2276 48.9811C51.4373 47.0693 50.3784 45.2963 49.087 43.7228C48.3307 44.6339 47.2865 45.2187 46.152 45.3667C45.0175 45.5147 43.8713 45.2155 42.9303 44.5259C41.9892 43.8362 41.3184 42.8037 41.0449 41.6238C40.7713 40.4439 40.9139 39.1984 41.4457 38.1227C40.4641 37.733 39.4554 37.4254 38.4288 37.2025C37.4997 36.996 36.5574 36.8642 35.6097 36.8081C35.6587 37.1743 35.6587 37.5461 35.6097 37.9123C35.4142 38.9843 34.8937 39.9587 34.1278 40.6863C33.362 41.4139 32.393 41.8546 31.3692 41.9411C30.3454 42.0276 29.3231 41.755 28.4588 41.1651C27.5945 40.5752 26.9358 39.7005 26.5836 38.6748C24.7804 39.5611 23.1131 40.731 21.6378 42.1453C22.2321 42.7245 22.6745 43.458 22.9216 44.2738C23.1687 45.0897 23.212 45.9598 23.0473 46.7989C22.9223 47.5473 22.635 48.2544 22.208 48.8641C21.7811 49.4737 21.2264 49.9692 20.5879 50.3112C19.9494 50.6532 19.2448 50.8322 18.5299 50.8341C17.8149 50.8359 17.1094 50.6606 16.4694 50.3219C16.1227 51.2963 15.8499 52.2986 15.6533 53.3192C15.4404 54.436 15.3245 55.5714 15.3071 56.7108C15.6599 56.6596 16.0177 56.6596 16.3705 56.7108C17.4323 56.8424 18.4202 57.355 19.171 58.1641C19.9219 58.9731 20.3908 60.0302 20.5003 61.1608C20.6098 62.2914 20.3534 63.428 19.7734 64.3827C19.1934 65.3375 18.3245 66.0534 17.3102 66.4123C18.1878 68.347 19.3479 70.1217 20.7475 71.6706C21.2885 71.0316 21.9763 70.5527 22.7435 70.2808C23.5107 70.0089 24.3311 69.9533 25.1246 70.1195C26.3504 70.3856 27.4269 71.1579 28.1177 72.267C28.8085 73.3761 29.0572 74.7312 28.8092 76.035C28.7447 76.3413 28.6536 76.6406 28.5372 76.929C29.3429 77.2335 30.1697 77.4708 31.0101 77.6388C32.0043 77.8507 33.0135 77.9738 34.027 78.0069C34.0026 77.7183 34.0026 77.4279 34.027 77.1393C34.2218 76.0988 34.7232 75.1513 35.4584 74.434C36.1936 73.7167 37.1245 73.2669 38.1163 73.1497C39.108 73.0326 40.1091 73.2541 40.9745 73.7823C41.8398 74.3106 42.5246 75.118 42.9295 76.0876C44.7278 75.2365 46.3951 74.102 47.8753 72.7223C47.2688 71.9628 46.8898 71.0278 46.7869 70.0376C46.6841 69.0473 46.8621 68.0469 47.2981 67.165C47.7341 66.2831 48.4082 65.56 49.2337 65.0886C50.0593 64.6171 50.9985 64.4189 51.9308 64.5194C52.1861 64.5667 52.4351 64.6461 52.6727 64.756C53.0585 63.717 53.3564 62.6436 53.563 61.5484C53.7831 60.554 53.9319 59.5433 54.0081 58.5249Z" stroke="#CD0707" stroke-linecap="round" stroke-linejoin="round"/>
<path d="M34.6453 65.0977C38.606 65.0977 41.8167 61.6841 41.8167 57.4732C41.8167 53.2623 38.606 49.8486 34.6453 49.8486C30.6846 49.8486 27.4739 53.2623 27.4739 57.4732C27.4739 61.6841 30.6846 65.0977 34.6453 65.0977Z" stroke="#CD0707" stroke-linecap="round" stroke-linejoin="round"/>
<path d="M23.6162 28.3685C15.6287 31.7601 1.97827 42.8551 1.97827 56.8422C1.97827 70.2246 14.4912 81.2407 22.0335 84.9215C39.1708 93.2034 74.929 104.588 93.0306 109.452C98.0466 110.879 103.198 111.699 108.387 111.897C122.082 111.897 135.215 106.113 144.898 95.8178C154.582 85.5226 160.022 71.5595 160.022 56.9999C160.022 42.4404 154.582 28.4773 144.898 18.1821C135.215 7.88701 122.082 2.10327 108.387 2.10327C103.196 2.29573 98.043 3.12503 93.0306 4.57467C75.3494 9.35973 39.1955 21.7693 23.6162 28.3685V28.3685Z" stroke="#CD0707" stroke-width="1.6" stroke-linecap="round" stroke-linejoin="round"/>
</svg>
