<svg width="30" height="30" viewBox="0 0 30 30" fill="none" xmlns="http://www.w3.org/2000/svg">
<path d="M11.8793 13.9757H3.95976C3.40377 13.9757 2.87055 13.7548 2.47741 13.3617C2.08427 12.9686 1.8634 12.4353 1.8634 11.8793V3.95979C1.8634 3.4038 2.08427 2.87058 2.47741 2.47744C2.87055 2.0843 3.40377 1.86343 3.95976 1.86343H11.8793C12.4353 1.86343 12.9685 2.0843 13.3617 2.47744C13.7548 2.87058 13.9757 3.4038 13.9757 3.95979V11.8793C13.9757 12.4353 13.7548 12.9686 13.3617 13.3617C12.9685 13.7548 12.4353 13.9757 11.8793 13.9757ZM25.855 13.9757H17.9355C17.3795 13.9757 16.8462 13.7548 16.4531 13.3617C16.06 12.9686 15.8391 12.4353 15.8391 11.8793V3.95979C15.8391 3.4038 16.06 2.87058 16.4531 2.47744C16.8462 2.0843 17.3795 1.86343 17.9355 1.86343H25.855C26.411 1.86343 26.9442 2.0843 27.3374 2.47744C27.7305 2.87058 27.9514 3.4038 27.9514 3.95979V11.8793C27.9514 12.4353 27.7305 12.9686 27.3374 13.3617C26.9442 13.7548 26.411 13.9757 25.855 13.9757ZM11.8793 27.9514H3.95976C3.40377 27.9514 2.87055 27.7305 2.47741 27.3374C2.08427 26.9442 1.8634 26.411 1.8634 25.855V17.9355C1.8634 17.3795 2.08427 16.8463 2.47741 16.4531C2.87055 16.06 3.40377 15.8391 3.95976 15.8391H11.8793C12.4353 15.8391 12.9685 16.06 13.3617 16.4531C13.7548 16.8463 13.9757 17.3795 13.9757 17.9355V25.855C13.9757 26.411 13.7548 26.9442 13.3617 27.3374C12.9685 27.7305 12.4353 27.9514 11.8793 27.9514ZM25.855 27.9514H17.9355C17.3795 27.9514 16.8462 27.7305 16.4531 27.3374C16.06 26.9442 15.8391 26.411 15.8391 25.855V17.9355C15.8391 17.3795 16.06 16.8463 16.4531 16.4531C16.8462 16.06 17.3795 15.8391 17.9355 15.8391H25.855C26.411 15.8391 26.9442 16.06 27.3374 16.4531C27.7305 16.8463 27.9514 17.3795 27.9514 17.9355V25.855C27.9514 26.411 27.7305 26.9442 27.3374 27.3374C26.9442 27.7305 26.411 27.9514 25.855 27.9514Z" fill="#DC002D"/>
</svg>
