<svg width="31" height="30" viewBox="0 0 31 30" fill="none" xmlns="http://www.w3.org/2000/svg">
<path d="M12.6941 13.9757H4.77458C4.21859 13.9757 3.68537 13.7548 3.29223 13.3617C2.89909 12.9686 2.67822 12.4353 2.67822 11.8793V3.95979C2.67822 3.4038 2.89909 2.87058 3.29223 2.47744C3.68537 2.0843 4.21859 1.86343 4.77458 1.86343H12.6941C13.2501 1.86343 13.7833 2.0843 14.1765 2.47744C14.5696 2.87058 14.7905 3.4038 14.7905 3.95979V11.8793C14.7905 12.4353 14.5696 12.9686 14.1765 13.3617C13.7833 13.7548 13.2501 13.9757 12.6941 13.9757ZM12.6941 27.9514H4.77458C4.21859 27.9514 3.68537 27.7305 3.29223 27.3374C2.89909 26.9442 2.67822 26.411 2.67822 25.855V17.9355C2.67822 17.3795 2.89909 16.8463 3.29223 16.4531C3.68537 16.06 4.21859 15.8391 4.77458 15.8391H12.6941C13.2501 15.8391 13.7833 16.06 14.1765 16.4531C14.5696 16.8463 14.7905 17.3795 14.7905 17.9355V21.8953V25.855C14.7905 26.411 14.5696 26.9442 14.1765 27.3374C13.7833 27.7305 13.2501 27.9514 12.6941 27.9514Z" fill="#797979"/>
<path d="M20.6545 13.9757H12.7349C12.1789 13.9757 11.6457 13.7548 11.2526 13.3617C10.8594 12.9686 10.6386 12.4353 10.6386 11.8793V3.95979C10.6386 3.4038 10.8594 2.87058 11.2526 2.47744C11.6457 2.0843 12.1789 1.86343 12.7349 1.86343H20.6545C21.2105 1.86343 21.7437 2.0843 22.1368 2.47744C22.53 2.87058 22.7508 3.4038 22.7508 3.95979V11.8793C22.7508 12.4353 22.53 12.9686 22.1368 13.3617C21.7437 13.7548 21.2105 13.9757 20.6545 13.9757ZM20.6545 27.9514H12.7349C12.1789 27.9514 11.6457 27.7305 11.2526 27.3374C10.8594 26.9442 10.6386 26.411 10.6386 25.855V17.9355C10.6386 17.3795 10.8594 16.8463 11.2526 16.4531C11.6457 16.06 12.1789 15.8391 12.7349 15.8391H20.6545C21.2105 15.8391 21.7437 16.06 22.1368 16.4531C22.53 16.8463 22.7508 17.3795 22.7508 17.9355V21.8953V25.855C22.7508 26.411 22.53 26.9442 22.1368 27.3374C21.7437 27.7305 21.2105 27.9514 20.6545 27.9514Z" fill="#797979"/>
<path d="M26.7106 13.9757H18.7911C18.2351 13.9757 17.7019 13.7548 17.3087 13.3617C16.9156 12.9686 16.6947 12.4353 16.6947 11.8793V3.95979C16.6947 3.4038 16.9156 2.87058 17.3087 2.47744C17.7019 2.0843 18.2351 1.86343 18.7911 1.86343H26.7106C27.2666 1.86343 27.7998 2.0843 28.193 2.47744C28.5861 2.87058 28.807 3.4038 28.807 3.95979V11.8793C28.807 12.4353 28.5861 12.9686 28.193 13.3617C27.7998 13.7548 27.2666 13.9757 26.7106 13.9757ZM26.7106 27.9514H18.7911C18.2351 27.9514 17.7019 27.7305 17.3087 27.3374C16.9156 26.9442 16.6947 26.411 16.6947 25.855V17.9355C16.6947 17.3795 16.9156 16.8463 17.3087 16.4531C17.7019 16.06 18.2351 15.8391 18.7911 15.8391H26.7106C27.2666 15.8391 27.7998 16.06 28.193 16.4531C28.5861 16.8463 28.807 17.3795 28.807 17.9355V21.8953V25.855C28.807 26.411 28.5861 26.9442 28.193 27.3374C27.7998 27.7305 27.2666 27.9514 26.7106 27.9514Z" fill="#797979"/>
</svg>
